<svg width="49" height="49" viewBox="0 0 49 49" fill="none" xmlns="http://www.w3.org/2000/svg">
<rect width="49" height="49" rx="7" fill="#E6EDE7" fill-opacity="0.5"/>
<g clip-path="url(#clip0_367_10775)">
<path d="M29.074 13.0115C29.0251 12.9569 27.2642 13.0331 25.7318 14.6963C24.1995 16.358 24.4352 18.2641 24.4697 18.313C24.5042 18.3619 26.6547 18.4381 28.0275 16.5046C29.4003 14.5712 29.1229 13.0676 29.074 13.0115ZM33.8379 29.8777C33.7689 29.7397 30.4957 28.1038 30.8005 24.9586C31.1052 21.8119 33.2083 20.9494 33.2413 20.8559C33.2744 20.7625 32.3831 19.7203 31.4387 19.1928C30.7453 18.8208 29.9778 18.6077 29.1919 18.5689C29.0366 18.5646 28.4976 18.4323 27.3893 18.7356C26.659 18.9354 25.0131 19.5823 24.5603 19.6082C24.106 19.6341 22.7548 18.8578 21.3015 18.6523C20.3714 18.4726 19.3853 18.8406 18.6795 19.1238C17.9751 19.4055 16.6353 20.2076 15.6981 22.3394C14.7608 24.4698 15.251 27.8451 15.6018 28.8944C15.9525 29.9424 16.5002 31.6602 17.4317 32.9137C18.2597 34.3282 19.358 35.31 19.8165 35.6435C20.2751 35.977 21.5688 36.1984 22.4658 35.7398C23.1875 35.2971 24.4898 35.0426 25.0045 35.0613C25.5176 35.08 26.5296 35.2827 27.5661 35.8361C28.3869 36.1193 29.1631 36.0014 29.9408 35.6852C30.7185 35.3675 31.8441 34.1629 33.158 31.7206C33.6568 30.5849 33.8839 29.9711 33.8379 29.8777Z" fill="black"/>
<path d="M29.074 13.0115C29.0251 12.9569 27.2642 13.0331 25.7318 14.6963C24.1995 16.358 24.4352 18.2641 24.4697 18.313C24.5042 18.3619 26.6547 18.4381 28.0275 16.5046C29.4003 14.5712 29.1229 13.0676 29.074 13.0115ZM33.8379 29.8777C33.7689 29.7397 30.4957 28.1038 30.8005 24.9586C31.1052 21.8119 33.2083 20.9494 33.2413 20.8559C33.2744 20.7625 32.3831 19.7203 31.4387 19.1928C30.7453 18.8208 29.9778 18.6077 29.1919 18.5689C29.0366 18.5646 28.4976 18.4323 27.3893 18.7356C26.659 18.9354 25.0131 19.5823 24.5603 19.6082C24.106 19.6341 22.7548 18.8578 21.3015 18.6523C20.3714 18.4726 19.3853 18.8406 18.6795 19.1238C17.9751 19.4055 16.6353 20.2076 15.6981 22.3394C14.7608 24.4698 15.251 27.8451 15.6018 28.8944C15.9525 29.9424 16.5002 31.6602 17.4317 32.9137C18.2597 34.3282 19.358 35.31 19.8165 35.6435C20.2751 35.977 21.5688 36.1984 22.4658 35.7398C23.1875 35.2971 24.4898 35.0426 25.0045 35.0613C25.5176 35.08 26.5296 35.2827 27.5661 35.8361C28.3869 36.1193 29.1631 36.0014 29.9408 35.6852C30.7185 35.3675 31.8441 34.1629 33.158 31.7206C33.6568 30.5849 33.8839 29.9711 33.8379 29.8777Z" fill="black"/>
</g>
<defs>
<clipPath id="clip0_367_10775">
<rect width="23" height="23" fill="white" transform="translate(13 13)"/>
</clipPath>
</defs>
</svg>
