<svg width="21" height="10" viewBox="0 0 21 10" fill="none" xmlns="http://www.w3.org/2000/svg">
<path d="M1.67871 4.99994L0.971604 5.70705L0.264497 4.99994L0.971604 4.29283L1.67871 4.99994ZM15.1094 4.99994L15.1094 3.99994L15.1094 3.99994L15.1094 4.99994ZM19.3214 4.00025C19.8736 4.00029 20.3213 4.44804 20.3213 5.00032C20.3212 5.55261 19.8735 6.00029 19.3212 6.00025L19.3214 4.00025ZM5.16868 9.90413L0.971604 5.70705L2.38582 4.29283L6.5829 8.48991L5.16868 9.90413ZM0.971604 4.29283L5.16868 0.0957562L6.5829 1.50997L2.38582 5.70705L0.971604 4.29283ZM1.67871 3.99994L15.1094 3.99994L15.1094 5.99994L1.67871 5.99994L1.67871 3.99994ZM15.1094 3.99994L19.3214 4.00025L19.3212 6.00025L15.1093 5.99994L15.1094 3.99994Z" fill="#6F6F6F"/>
</svg>
