<svg width="49" height="49" viewBox="0 0 49 49" fill="none" xmlns="http://www.w3.org/2000/svg">
<rect width="49" height="49" rx="7" fill="#E6EDE7" fill-opacity="0.5"/>
<path d="M30 13.59C30 13.4354 29.9425 13.2871 29.8402 13.1777C29.7379 13.0683 29.5992 13.0069 29.4545 13.0069H26.7273C25.354 12.9338 24.0094 13.4447 22.9873 14.4281C21.9653 15.4115 21.3489 16.7874 21.2727 18.2552V21.4041H18.5455C18.4008 21.4041 18.2621 21.4656 18.1598 21.5749C18.0575 21.6843 18 21.8326 18 21.9873V25.0196C18 25.1743 18.0575 25.3226 18.1598 25.432C18.2621 25.5413 18.4008 25.6028 18.5455 25.6028H21.2727V33.4169C21.2727 33.5715 21.3302 33.7198 21.4325 33.8292C21.5348 33.9386 21.6735 34 21.8182 34H25.0909C25.2356 34 25.3743 33.9386 25.4766 33.8292C25.5789 33.7198 25.6364 33.5715 25.6364 33.4169V25.6028H28.4945C28.6158 25.6046 28.7343 25.5632 28.8311 25.485C28.9279 25.4069 28.9976 25.2965 29.0291 25.1712L29.8145 22.1389C29.8362 22.0527 29.8392 21.9624 29.8231 21.8748C29.807 21.7873 29.7723 21.7048 29.7217 21.6339C29.6711 21.5629 29.606 21.5053 29.5313 21.4654C29.4566 21.4256 29.3744 21.4046 29.2909 21.4041H25.6364V18.2552C25.6635 17.9665 25.7903 17.699 25.992 17.5049C26.1937 17.3108 26.4559 17.2041 26.7273 17.2055H29.4545C29.5992 17.2055 29.7379 17.1441 29.8402 17.0347C29.9425 16.9254 30 16.777 30 16.6224V13.59Z" fill="#4285F4"/>
</svg>
