<svg width="49" height="49" viewBox="0 0 49 49" fill="none" xmlns="http://www.w3.org/2000/svg">
<rect width="49" height="49" rx="7" fill="#E6EDE7" fill-opacity="0.5"/>
<g clip-path="url(#clip0_367_10764)">
<path d="M18.1364 33.9017V23.652L14.9011 20.7439L12 19.1301V32.0929C12 33.0938 12.8253 33.9017 13.841 33.9017H18.1364Z" fill="#4285F4"/>
<path d="M32.8633 33.9016H37.1587C38.1774 33.9016 38.9997 33.0906 38.9997 32.0928V19.1301L35.7137 20.9785L32.8633 23.6519V33.9016Z" fill="#34A853"/>
<path d="M18.1365 23.6519L17.6963 19.647L18.1365 15.814L25.5001 21.2403L32.8638 15.814L33.3563 19.4401L32.8638 23.6519L25.5001 29.0782L18.1365 23.6519Z" fill="#EA4335"/>
<path d="M32.8633 15.8143V23.6523L38.9997 19.1304V16.7187C38.9997 14.4819 36.4009 13.2068 34.5816 14.5482L32.8633 15.8143Z" fill="#FBBC04"/>
<path d="M12 19.1297L14.8222 21.2095L18.1364 23.6516V15.8137L16.4181 14.5475C14.5956 13.206 12 14.4812 12 16.7179V19.1296V19.1297Z" fill="#C5221F"/>
</g>
<defs>
<clipPath id="clip0_367_10764">
<rect width="27" height="20" fill="white" transform="translate(12 14)"/>
</clipPath>
</defs>
</svg>
