<svg width="24" height="16" viewBox="0 0 24 16" fill="none" xmlns="http://www.w3.org/2000/svg">
<mask id="path-1-inside-1_367_10736" fill="white">
<path fill-rule="evenodd" clip-rule="evenodd" d="M16.8534 9.11967C16.9529 8.76983 17.0058 8.4029 17.0058 8.0247C17.0058 5.62178 14.8687 3.67383 12.2324 3.67383C11.8175 3.67383 11.4149 3.72208 11.0311 3.81277L16.8534 9.11967ZM8.37979 5.45537C7.80085 6.17535 7.45898 7.06364 7.45898 8.0247C7.45898 10.4276 9.59611 12.3756 12.2324 12.3756C13.2868 12.3756 14.2613 12.064 15.0513 11.5363L8.37979 5.45537Z"/>
</mask>
<path fill-rule="evenodd" clip-rule="evenodd" d="M16.8534 9.11967C16.9529 8.76983 17.0058 8.4029 17.0058 8.0247C17.0058 5.62178 14.8687 3.67383 12.2324 3.67383C11.8175 3.67383 11.4149 3.72208 11.0311 3.81277L16.8534 9.11967ZM8.37979 5.45537C7.80085 6.17535 7.45898 7.06364 7.45898 8.0247C7.45898 10.4276 9.59611 12.3756 12.2324 12.3756C13.2868 12.3756 14.2613 12.064 15.0513 11.5363L8.37979 5.45537Z" fill="#7E869E" fill-opacity="0.25"/>
<path d="M16.8534 9.11967L16.3818 9.63701L17.2174 10.3986L17.5267 9.31116L16.8534 9.11967ZM11.0311 3.81277L10.8701 3.13153L9.57921 3.43655L10.5595 4.33011L11.0311 3.81277ZM8.37979 5.45537L8.85134 4.93802L8.30094 4.43635L7.83427 5.01672L8.37979 5.45537ZM15.0513 11.5363L15.4401 12.1184L16.1839 11.6215L15.5228 11.0189L15.0513 11.5363ZM16.3058 8.0247C16.3058 8.33718 16.2621 8.63969 16.1801 8.92818L17.5267 9.31116C17.6436 8.89997 17.7058 8.46863 17.7058 8.0247H16.3058ZM12.2324 4.37383C14.5446 4.37383 16.3058 6.06803 16.3058 8.0247H17.7058C17.7058 5.17554 15.1928 2.97383 12.2324 2.97383V4.37383ZM11.1921 4.49401C11.5233 4.41575 11.8718 4.37383 12.2324 4.37383V2.97383C11.7631 2.97383 11.3065 3.02842 10.8701 3.13153L11.1921 4.49401ZM10.5595 4.33011L16.3818 9.63701L17.3249 8.60233L11.5026 3.29543L10.5595 4.33011ZM8.15898 8.0247C8.15898 7.2344 8.43909 6.49869 8.92531 5.89401L7.83427 5.01672C7.16262 5.85201 6.75898 6.89288 6.75898 8.0247H8.15898ZM12.2324 11.6756C9.92024 11.6756 8.15898 9.98138 8.15898 8.0247H6.75898C6.75898 10.8739 9.27199 13.0756 12.2324 13.0756V11.6756ZM14.6624 10.9542C13.9875 11.4051 13.1483 11.6756 12.2324 11.6756V13.0756C13.4253 13.0756 14.5352 12.7229 15.4401 12.1184L14.6624 10.9542ZM15.5228 11.0189L8.85134 4.93802L7.90824 5.97271L14.5797 12.0536L15.5228 11.0189Z" fill="#0A7212" mask="url(#path-1-inside-1_367_10736)"/>
<mask id="path-3-inside-2_367_10736" fill="white">
<path fill-rule="evenodd" clip-rule="evenodd" d="M16.8534 9.11967C16.9529 8.76983 17.0058 8.4029 17.0058 8.0247C17.0058 5.62178 14.8687 3.67383 12.2324 3.67383C11.8175 3.67383 11.4149 3.72208 11.0311 3.81277L12.1954 4.87399C12.2077 4.87388 12.22 4.87383 12.2324 4.87383C14.313 4.87383 15.8058 6.38677 15.8058 8.0247C15.8058 8.07047 15.8046 8.11613 15.8023 8.16167L16.8534 9.11967ZM9.27108 6.26776C8.88023 6.78209 8.65898 7.39414 8.65898 8.0247C8.65898 9.66264 10.1518 11.1756 12.2324 11.1756C12.9465 11.1756 13.5914 10.9973 14.1305 10.697L15.0513 11.5363C14.2613 12.064 13.2868 12.3756 12.2324 12.3756C9.59611 12.3756 7.45898 10.4276 7.45898 8.0247C7.45898 7.06364 7.80085 6.17535 8.37979 5.45537L9.27108 6.26776Z"/>
</mask>
<path fill-rule="evenodd" clip-rule="evenodd" d="M16.8534 9.11967C16.9529 8.76983 17.0058 8.4029 17.0058 8.0247C17.0058 5.62178 14.8687 3.67383 12.2324 3.67383C11.8175 3.67383 11.4149 3.72208 11.0311 3.81277L12.1954 4.87399C12.2077 4.87388 12.22 4.87383 12.2324 4.87383C14.313 4.87383 15.8058 6.38677 15.8058 8.0247C15.8058 8.07047 15.8046 8.11613 15.8023 8.16167L16.8534 9.11967ZM9.27108 6.26776C8.88023 6.78209 8.65898 7.39414 8.65898 8.0247C8.65898 9.66264 10.1518 11.1756 12.2324 11.1756C12.9465 11.1756 13.5914 10.9973 14.1305 10.697L15.0513 11.5363C14.2613 12.064 13.2868 12.3756 12.2324 12.3756C9.59611 12.3756 7.45898 10.4276 7.45898 8.0247C7.45898 7.06364 7.80085 6.17535 8.37979 5.45537L9.27108 6.26776Z" fill="#CCCCCC"/>
<path d="M16.8534 9.11967L16.3818 9.63701L17.2174 10.3986L17.5267 9.31116L16.8534 9.11967ZM11.0311 3.81277L10.8701 3.13153L9.57921 3.43655L10.5595 4.33011L11.0311 3.81277ZM12.1954 4.87399L11.7238 5.39133L11.9268 5.57634L12.2014 5.57396L12.1954 4.87399ZM15.8023 8.16167L15.1032 8.12619L15.0865 8.45633L15.3308 8.67901L15.8023 8.16167ZM9.27108 6.26776L9.82841 6.6913L10.2157 6.18163L9.74263 5.75042L9.27108 6.26776ZM14.1305 10.697L14.602 10.1797L14.2297 9.84035L13.7897 10.0855L14.1305 10.697ZM15.0513 11.5363L15.4401 12.1184L16.1839 11.6215L15.5228 11.0189L15.0513 11.5363ZM8.37979 5.45537L8.85134 4.93802L8.30094 4.43635L7.83427 5.01672L8.37979 5.45537ZM17.5267 9.31116C17.6436 8.89997 17.7058 8.46863 17.7058 8.0247H16.3058C16.3058 8.33718 16.2621 8.63969 16.1801 8.92818L17.5267 9.31116ZM17.7058 8.0247C17.7058 5.17554 15.1928 2.97383 12.2324 2.97383V4.37383C14.5446 4.37383 16.3058 6.06803 16.3058 8.0247H17.7058ZM12.2324 2.97383C11.7631 2.97383 11.3065 3.02842 10.8701 3.13153L11.1921 4.49401C11.5233 4.41575 11.8718 4.37383 12.2324 4.37383V2.97383ZM10.5595 4.33011L11.7238 5.39133L12.6669 4.35665L11.5026 3.29543L10.5595 4.33011ZM12.2324 4.17383C12.218 4.17383 12.2037 4.17389 12.1893 4.17401L12.2014 5.57396C12.2117 5.57387 12.2221 5.57383 12.2324 5.57383V4.17383ZM16.5058 8.0247C16.5058 5.94677 14.644 4.17383 12.2324 4.17383V5.57383C13.9821 5.57383 15.1058 6.82678 15.1058 8.0247H16.5058ZM16.5014 8.19714C16.5043 8.13985 16.5058 8.08235 16.5058 8.0247H15.1058C15.1058 8.05858 15.1049 8.09242 15.1032 8.12619L16.5014 8.19714ZM15.3308 8.67901L16.3818 9.63701L17.3249 8.60233L16.2739 7.64433L15.3308 8.67901ZM8.71375 5.84423C8.23844 6.46969 7.95898 7.22829 7.95898 8.0247H9.35898C9.35898 7.55999 9.52201 7.09449 9.82841 6.6913L8.71375 5.84423ZM7.95898 8.0247C7.95898 10.1026 9.82083 11.8756 12.2324 11.8756V10.4756C10.4827 10.4756 9.35898 9.22263 9.35898 8.0247H7.95898ZM12.2324 11.8756C13.0644 11.8756 13.8268 11.6675 14.4712 11.3085L13.7897 10.0855C13.3561 10.3272 12.8286 10.4756 12.2324 10.4756V11.8756ZM15.5228 11.0189L14.602 10.1797L13.6589 11.2143L14.5797 12.0536L15.5228 11.0189ZM12.2324 13.0756C13.4253 13.0756 14.5352 12.7229 15.4401 12.1184L14.6624 10.9542C13.9875 11.4051 13.1483 11.6756 12.2324 11.6756V13.0756ZM6.75898 8.0247C6.75898 10.8739 9.27199 13.0756 12.2324 13.0756V11.6756C9.92024 11.6756 8.15898 9.98138 8.15898 8.0247H6.75898ZM7.83427 5.01672C7.16262 5.85201 6.75898 6.89288 6.75898 8.0247H8.15898C8.15898 7.2344 8.43909 6.49869 8.92531 5.89401L7.83427 5.01672ZM9.74263 5.75042L8.85134 4.93802L7.90824 5.97271L8.79953 6.7851L9.74263 5.75042Z" fill="#0A7212" mask="url(#path-3-inside-2_367_10736)"/>
<path fill-rule="evenodd" clip-rule="evenodd" d="M17.4139 13.6911L16.4723 12.8329C15.1625 13.5031 13.7266 13.9511 12.2324 13.9511C10.2116 13.9511 8.29747 13.1317 6.65765 12.0515C5.02125 10.9736 3.70068 9.66408 2.87948 8.75189C2.64373 8.49002 2.51405 8.34344 2.43393 8.22004C2.37124 8.12348 2.36309 8.07724 2.36309 8.02475C2.36309 7.97227 2.37124 7.92603 2.43393 7.82947C2.51405 7.70607 2.64373 7.55949 2.87948 7.29762C3.70068 6.38543 5.02125 5.07586 6.65765 3.99798C6.6812 3.98247 6.70481 3.96701 6.72848 3.9516L5.81425 3.1183C4.14797 4.24697 2.81765 5.57277 1.98764 6.49474L1.91336 6.57687C1.54116 6.98753 1.16309 7.40468 1.16309 8.02475C1.16309 8.64483 1.54116 9.06197 1.91336 9.47264L1.98764 9.55477C2.84786 10.5103 4.24549 11.8996 5.99755 13.0537C7.74618 14.2055 9.89075 15.1511 12.2324 15.1511C14.1229 15.1511 15.8849 14.5347 17.4139 13.6911ZM8.62121 1.61758C9.74545 1.17771 10.9598 0.898438 12.2324 0.898438C14.574 0.898438 16.7186 1.84404 18.4672 2.99585C20.2193 4.14991 21.6169 5.53921 22.4771 6.49473L22.5514 6.57687C22.9236 6.98753 23.3017 7.40468 23.3017 8.02475C23.3017 8.64483 22.9236 9.06198 22.5514 9.47264L22.4771 9.55477C21.8785 10.2198 21.0195 11.0948 19.962 11.9545L19.0645 11.1365C20.1227 10.2929 20.9867 9.41682 21.5853 8.75189C21.8211 8.49002 21.9507 8.34344 22.0309 8.22004C22.0936 8.12348 22.1017 8.07724 22.1017 8.02475C22.1017 7.97227 22.0936 7.92603 22.0309 7.82947C21.9507 7.70607 21.8211 7.55949 21.5853 7.29762C20.7641 6.38543 19.4435 5.07586 17.8071 3.99798C16.1673 2.91784 14.2532 2.09844 12.2324 2.09844C11.3373 2.09844 10.4632 2.25919 9.62459 2.53214L8.62121 1.61758Z" fill="#CCCCCC"/>
<path d="M17.4139 13.6911L17.583 13.9976L18.0107 13.7616L17.6496 13.4325L17.4139 13.6911ZM16.4723 12.8329L16.7081 12.5742L16.5288 12.4109L16.3129 12.5213L16.4723 12.8329ZM6.65765 12.0515L6.46512 12.3438L6.65765 12.0515ZM2.87948 8.75189L3.1396 8.51771H3.1396L2.87948 8.75189ZM2.43393 8.22004L2.72748 8.02944L2.72748 8.02944L2.43393 8.22004ZM2.43393 7.82947L2.14038 7.63887L2.14038 7.63887L2.43393 7.82947ZM2.87948 7.29762L3.1396 7.5318L2.87948 7.29762ZM6.65765 3.99798L6.46512 3.70569L6.46512 3.70569L6.65765 3.99798ZM6.72848 3.9516L6.91941 4.24493L7.29887 3.99793L6.96425 3.69293L6.72848 3.9516ZM5.81425 3.1183L6.05002 2.85963L5.84624 2.67389L5.61796 2.82852L5.81425 3.1183ZM1.98764 6.49474L2.24724 6.72949L2.24776 6.72891L1.98764 6.49474ZM1.91336 6.57687L2.1727 6.81192L2.17296 6.81163L1.91336 6.57687ZM1.91336 9.47264L2.17296 9.23788L2.1727 9.23759L1.91336 9.47264ZM1.98764 9.55477L2.24776 9.3206L2.24724 9.32002L1.98764 9.55477ZM5.99755 13.0537L6.19008 12.7614L5.99755 13.0537ZM8.62121 1.61758L8.49368 1.29164L7.96919 1.49686L8.38544 1.87626L8.62121 1.61758ZM18.4672 2.99585L18.2747 3.28814L18.4672 2.99585ZM22.4771 6.49473L22.217 6.72891L22.2176 6.72949L22.4771 6.49473ZM22.5514 6.57687L22.2918 6.81163L22.2921 6.81192L22.5514 6.57687ZM22.5514 9.47264L22.2921 9.23759L22.2918 9.23788L22.5514 9.47264ZM22.4771 9.55477L22.2176 9.32002L22.217 9.3206L22.4771 9.55477ZM19.962 11.9545L19.7262 12.2132L19.9489 12.4162L20.1828 12.2261L19.962 11.9545ZM19.0645 11.1365L18.8464 10.8628L18.5254 11.1187L18.8288 11.3952L19.0645 11.1365ZM21.5853 8.75189L21.8454 8.98606L21.5853 8.75189ZM22.0309 8.22004L21.7373 8.02944V8.02944L22.0309 8.22004ZM22.0309 7.82947L21.7373 8.02007L21.7373 8.02007L22.0309 7.82947ZM21.5853 7.29762L21.8454 7.06344L21.5853 7.29762ZM17.8071 3.99798L17.6146 4.29027L17.8071 3.99798ZM9.62459 2.53214L9.38881 2.79081L9.53929 2.92797L9.73291 2.86496L9.62459 2.53214ZM17.6496 13.4325L16.7081 12.5742L16.2365 13.0916L17.1781 13.9498L17.6496 13.4325ZM12.2324 14.3011C13.7967 14.3011 15.2875 13.8322 16.6317 13.1445L16.3129 12.5213C15.0375 13.1739 13.6565 13.6011 12.2324 13.6011V14.3011ZM6.46512 12.3438C8.1367 13.4449 10.118 14.3011 12.2324 14.3011V13.6011C10.3052 13.6011 8.45824 12.8185 6.85017 11.7592L6.46512 12.3438ZM2.61936 8.98606C3.45194 9.91089 4.79499 11.2437 6.46512 12.3438L6.85017 11.7592C5.24752 10.7036 3.94943 9.41726 3.1396 8.51771L2.61936 8.98606ZM2.14038 8.41064C2.23907 8.56264 2.39138 8.73282 2.61936 8.98606L3.1396 8.51771C2.89608 8.24721 2.78904 8.12424 2.72748 8.02944L2.14038 8.41064ZM2.01309 8.02475C2.01309 8.07414 2.01735 8.13827 2.04234 8.21467C2.06516 8.28444 2.10006 8.34854 2.14038 8.41064L2.72748 8.02944C2.71668 8.0128 2.71088 8.00239 2.70803 7.99681C2.70531 7.99149 2.70599 7.99197 2.70766 7.99706C2.70849 7.99961 2.70943 8.0029 2.71031 8.00678C2.7112 8.01068 2.71187 8.01451 2.71234 8.01808C2.71327 8.02518 2.71309 8.02885 2.71309 8.02475H2.01309ZM2.14038 7.63887C2.10006 7.70097 2.06516 7.76506 2.04234 7.83484C2.01735 7.91123 2.01309 7.97537 2.01309 8.02475H2.71309C2.71309 8.02065 2.71327 8.02432 2.71234 8.03143C2.71187 8.03499 2.7112 8.03882 2.71031 8.04272C2.70943 8.04661 2.70849 8.04989 2.70766 8.05244C2.70599 8.05753 2.70531 8.05802 2.70803 8.0527C2.71088 8.04712 2.71668 8.0367 2.72748 8.02007L2.14038 7.63887ZM2.61936 7.06345C2.39138 7.31669 2.23907 7.48687 2.14038 7.63887L2.72748 8.02007C2.78904 7.92527 2.89608 7.8023 3.1396 7.5318L2.61936 7.06345ZM6.46512 3.70569C4.79499 4.80579 3.45194 6.13862 2.61936 7.06345L3.1396 7.5318C3.94943 6.63224 5.24752 5.34592 6.85017 4.29027L6.46512 3.70569ZM6.53754 3.65827C6.51334 3.67402 6.4892 3.68983 6.46512 3.70569L6.85017 4.29027C6.8732 4.2751 6.89628 4.25999 6.91941 4.24493L6.53754 3.65827ZM6.96425 3.69293L6.05002 2.85963L5.57847 3.37697L6.4927 4.21027L6.96425 3.69293ZM2.24776 6.72891C3.06662 5.81932 4.37572 4.51544 6.01053 3.40808L5.61796 2.82852C3.92022 3.97851 2.56867 5.32622 1.72752 6.26056L2.24776 6.72891ZM2.17296 6.81163L2.24724 6.72949L1.72805 6.25998L1.65377 6.34212L2.17296 6.81163ZM1.51309 8.02475C1.51309 7.55909 1.78661 7.2379 2.1727 6.81192L1.65403 6.34183C1.29572 6.73717 0.813086 7.25026 0.813086 8.02475H1.51309ZM2.1727 9.23759C1.78661 8.81161 1.51309 8.49041 1.51309 8.02475H0.813086C0.813086 8.79925 1.29572 9.31234 1.65403 9.70768L2.1727 9.23759ZM2.24724 9.32002L2.17296 9.23788L1.65377 9.70739L1.72805 9.78953L2.24724 9.32002ZM6.19008 12.7614C4.47175 11.6295 3.0966 10.2635 2.24776 9.3206L1.72752 9.78895C2.59913 10.7571 4.01923 12.1697 5.80502 13.3459L6.19008 12.7614ZM12.2324 14.8011C9.98434 14.8011 7.90699 13.8923 6.19008 12.7614L5.80502 13.3459C7.58536 14.5186 9.79715 15.5011 12.2324 15.5011V14.8011ZM17.2448 13.3847C15.7502 14.2093 14.0466 14.8011 12.2324 14.8011V15.5011C14.1992 15.5011 16.0197 14.8601 17.583 13.9976L17.2448 13.3847ZM8.74874 1.94352C9.84047 1.51637 11.0114 1.24844 12.2324 1.24844V0.548438C10.9082 0.548438 9.65044 0.83905 8.49368 1.29164L8.74874 1.94352ZM12.2324 1.24844C14.4804 1.24844 16.5578 2.15722 18.2747 3.28814L18.6598 2.70356C16.8794 1.53086 14.6676 0.548438 12.2324 0.548438V1.24844ZM18.2747 3.28814C19.993 4.41998 21.3682 5.78603 22.217 6.72891L22.7373 6.26056C21.8657 5.29239 20.4456 3.87984 18.6598 2.70356L18.2747 3.28814ZM22.2176 6.72949L22.2918 6.81163L22.811 6.34211L22.7367 6.25998L22.2176 6.72949ZM22.2921 6.81192C22.6782 7.2379 22.9517 7.55909 22.9517 8.02475H23.6517C23.6517 7.25026 23.1691 6.73717 22.8108 6.34183L22.2921 6.81192ZM22.9517 8.02475C22.9517 8.49041 22.6782 8.81161 22.2921 9.23759L22.8108 9.70768C23.1691 9.31234 23.6517 8.79925 23.6517 8.02475H22.9517ZM22.2918 9.23788L22.2176 9.32002L22.7367 9.78953L22.811 9.70739L22.2918 9.23788ZM22.217 9.3206C21.6271 9.97592 20.7812 10.8375 19.7412 11.6829L20.1828 12.2261C21.2579 11.3522 22.1299 10.4636 22.7373 9.78895L22.217 9.3206ZM18.8288 11.3952L19.7262 12.2132L20.1978 11.6958L19.3003 10.8778L18.8288 11.3952ZM19.2827 11.4102C20.3598 10.5515 21.2377 9.66109 21.8454 8.98606L21.3252 8.51771C20.7357 9.17255 19.8857 10.0343 18.8464 10.8628L19.2827 11.4102ZM21.8454 8.98606C22.0734 8.73282 22.2257 8.56264 22.3244 8.41064L21.7373 8.02944C21.6757 8.12424 21.5687 8.24721 21.3252 8.51771L21.8454 8.98606ZM22.3244 8.41064C22.3647 8.34854 22.3996 8.28445 22.4224 8.21467C22.4474 8.13828 22.4517 8.07414 22.4517 8.02475H21.7517C21.7517 8.02885 21.7515 8.02518 21.7525 8.01808C21.7529 8.01451 21.7536 8.01068 21.7545 8.00678C21.7554 8.0029 21.7563 7.99961 21.7571 7.99706C21.7588 7.99197 21.7595 7.99149 21.7568 7.9968C21.7539 8.00239 21.7481 8.0128 21.7373 8.02944L22.3244 8.41064ZM22.4517 8.02475C22.4517 7.97537 22.4474 7.91123 22.4224 7.83483C22.3996 7.76506 22.3647 7.70096 22.3244 7.63886L21.7373 8.02007C21.7481 8.0367 21.7539 8.04712 21.7568 8.0527C21.7595 8.05802 21.7588 8.05753 21.7571 8.05244C21.7563 8.04989 21.7554 8.04661 21.7545 8.04273C21.7536 8.03882 21.7529 8.03499 21.7525 8.03143C21.7515 8.02433 21.7517 8.02065 21.7517 8.02475H22.4517ZM22.3244 7.63887C22.2257 7.48687 22.0734 7.31668 21.8454 7.06344L21.3252 7.53179C21.5687 7.80229 21.6757 7.92527 21.7373 8.02007L22.3244 7.63887ZM21.8454 7.06344C21.0128 6.13862 19.6698 4.80579 17.9997 3.70569L17.6146 4.29027C19.2173 5.34592 20.5154 6.63224 21.3252 7.53179L21.8454 7.06344ZM17.9997 3.70569C16.3281 2.60464 14.3468 1.74844 12.2324 1.74844V2.44844C14.1596 2.44844 16.0065 3.23105 17.6146 4.29027L17.9997 3.70569ZM12.2324 1.74844C11.2952 1.74844 10.3844 1.91677 9.51626 2.19933L9.73291 2.86496C10.542 2.6016 11.3795 2.44844 12.2324 2.44844V1.74844ZM8.38544 1.87626L9.38881 2.79081L9.86036 2.27347L8.85699 1.35891L8.38544 1.87626Z" fill="#0A7212"/>
<path d="M5.07227 0.411133L20.5859 14.5515" stroke="#0A7212" stroke-width="0.7"/>
</svg>
