<svg width="24" height="25" viewBox="0 0 24 25" fill="none" xmlns="http://www.w3.org/2000/svg">
<path d="M4.92893 19.5711C6.32746 20.9696 8.10929 21.922 10.0491 22.3079C11.9889 22.6937 13.9996 22.4957 15.8268 21.7388C17.6541 20.9819 19.2159 19.7002 20.3147 18.0557C21.4135 16.4112 22 14.4778 22 12.5C22 10.5222 21.4135 8.58879 20.3147 6.9443C19.2159 5.29981 17.6541 4.01808 15.8268 3.26121C13.9996 2.50433 11.9889 2.3063 10.0491 2.69215C8.10929 3.078 6.32746 4.03041 4.92893 5.42893" stroke="#0A7212" stroke-width="1.7"/>
<path d="M15 12.5L15.6637 11.969L16.0885 12.5L15.6637 13.031L15 12.5ZM3 13.35C2.53056 13.35 2.15 12.9694 2.15 12.5C2.15 12.0306 2.53056 11.65 3 11.65V13.35ZM11.6637 6.96901L15.6637 11.969L14.3363 13.031L10.3363 8.03099L11.6637 6.96901ZM15.6637 13.031L11.6637 18.031L10.3363 16.969L14.3363 11.969L15.6637 13.031ZM15 13.35H3V11.65H15V13.35Z" fill="#0A7212"/>
</svg>
