<svg width="25" height="25" viewBox="0 0 25 25" fill="none" xmlns="http://www.w3.org/2000/svg">
<path d="M9.375 21.875H12.5C14.6042 21.875 15.6563 21.875 16.5219 21.6541C19.0425 21.0107 21.0107 19.0425 21.6541 16.5219C21.875 15.6563 21.875 14.6042 21.875 12.5V12.5C21.875 10.3958 21.875 9.34369 21.6541 8.47812C21.0107 5.95752 19.0425 3.9893 16.5219 3.34593C15.6563 3.125 14.6042 3.125 12.5 3.125V3.125C10.3958 3.125 9.34369 3.125 8.47812 3.34593C5.95752 3.9893 3.9893 5.95752 3.34593 8.47812C3.125 9.34369 3.125 10.3958 3.125 12.5V15.625" stroke="#6F6F6F" stroke-width="1.7" stroke-linecap="round"/>
<path d="M15.625 9.375H16.375V8.625H15.625V9.375ZM6.76134 17.178C6.46844 17.4709 6.46844 17.9458 6.76134 18.2387C7.05423 18.5316 7.5291 18.5316 7.822 18.2387L6.76134 17.178ZM8.33333 10.125H15.625V8.625H8.33333V10.125ZM14.875 9.375V16.6667H16.375V9.375H14.875ZM15.0947 8.84467L6.76134 17.178L7.822 18.2387L16.1553 9.90533L15.0947 8.84467Z" fill="#6F6F6F"/>
</svg>
